<?xml version="1.0" encoding="UTF-8"?>
<svg id="Layer_1" data-name="Layer 1" xmlns="http://www.w3.org/2000/svg" viewBox="0 0 45 45">
  <defs>
    <style>
      .cls-1 {
        fill: #000045;
        stroke-width: 0px;
      }
    </style>
  </defs>
  <path class="cls-1" d="m22.5,45C10.09,45,0,34.91,0,22.5S10.09,0,22.5,0s22.5,10.09,22.5,22.5-10.09,22.5-22.5,22.5Zm0-43.77C10.77,1.23,1.23,10.77,1.23,22.5s9.54,21.27,21.27,21.27,21.27-9.54,21.27-21.27S34.23,1.23,22.5,1.23Z"/>
  <polygon class="cls-1" points="30.27 33.29 19.87 23.12 19.87 22.22 30.27 12.05 31.56 13.37 22.05 22.67 31.56 31.97 30.27 33.29"/>
  <polygon class="cls-1" points="20.83 33.29 10.43 23.12 10.43 22.22 20.83 12.05 22.12 13.37 12.61 22.67 22.12 31.97 20.83 33.29"/>
</svg>