<?xml version="1.0" encoding="utf-8"?>
<!-- Generator: Adobe Illustrator 27.2.0, SVG Export Plug-In . SVG Version: 6.00 Build 0)  -->
<svg version="1.1" id="Layer_1" xmlns="http://www.w3.org/2000/svg" xmlns:xlink="http://www.w3.org/1999/xlink" x="0px" y="0px"
	 viewBox="0 0 309.2 35.9" style="enable-background:new 0 0 309.2 35.9;" xml:space="preserve">
<style type="text/css">
	.st0{fill:#000046;}
	.st1{fill:#E40052;}
	.st2{fill:#FF38D0;}
	.st3{fill:#C500EE;}
	.st4{fill:#FF8900;}
	.st5{fill:#35C380;}
	.st6{enable-background:new    ;}
	.st7{fill:#5000F2;}
</style>
<g>
	<rect x="169.3" class="st0" width="0.7" height="35.9"/>
	<path class="st1" d="M96.4,24.2c8.7,0,13.3-2.7,13.3-7.2s-4.6-7.2-13.3-7.2S83.1,12.5,83.1,17S87.7,24.2,96.4,24.2 M90.6,17
		c0-2.6,0.8-4.9,5.8-4.9c5.1,0,5.8,2.4,5.8,4.9c0,2.6-0.8,4.9-5.8,4.9C91.3,21.9,90.6,19.6,90.6,17"/>
	<path class="st1" d="M64.8,15.4c0-2.1,1.9-3.7,5.8-3.7c3.8,0,4.6,1.4,4.6,2.8h7.5c0-2.5-2.4-5-11.4-5c-8.2,0-12.3,2.1-13.5,4.9
		c-9.1,0-12.3-3.3-12.3-6.1c0-2.1,1.9-3.7,5.8-3.7c3.8,0,4.6,1.4,4.6,2.8h7.5c0-2.5-2.4-5-11.4-5c-9.7,0-13.8,2.1-13.8,7.6v0.7v13.1
		h7v-8c2.6,0.7,5.7,1,9.1,1c1.1,0,2.3,0,3.4-0.1C58.1,21.9,65,24,73.8,24c3.2,0,6.1-0.3,8.8-0.6v-2c-1.5,0.2-3,0.3-5.1,0.3
		C68.1,21.5,64.8,18.2,64.8,15.4"/>
	<path class="st1" d="M111.5,15.1c0,0.1,0,0.2,0,0.3V15.1z M142.8,9.7c-4.8,0-7.6,1.7-8.5,2.7h-0.1c-0.9-1.9-4-2.7-7.6-2.7
		c-4.9,0-7.1,1.5-7.9,2.4h-0.1V10h-7h-3.2v2.2c1.9,0,3.1,1.4,3.2,2.9v0.4v8.2h7v-5.9c0-2.2,2-5.1,6.1-5.1c2.5,0,3.1,0.4,3.1,3.2v7.8
		h7v-5.9c0-2.2,2-5.1,6.1-5.1c2.5,0,3.1,0.4,3.1,3.2v7.8h7v-9.5C150.9,11,147.2,9.7,142.8,9.7"/>
	<rect x="87.9" y="29.4" class="st0" width="63.2" height="4.2"/>
	<rect x="53.7" y="29.4" class="st2" width="8.5" height="4.2"/>
	<rect x="62.3" y="29.4" class="st3" width="14.2" height="4.2"/>
	<rect x="45.2" y="29.4" class="st4" width="8.5" height="4.2"/>
	<rect x="25.3" y="29.4" class="st5" width="19.9" height="4.2"/>
</g>
<g class="st6">
	<path class="st0" d="M188,14.8V7.6h1.3l2.1,4.8h0.2l2.1-4.8h1.3v7.2h-1V8.7l0.1,0l-2,4.6h-1.2l-2.1-4.6l0.1,0v6.2H188z"/>
</g>
<g class="st6">
	<path class="st0" d="M198.4,15c-0.4,0-0.7-0.1-1-0.2c-0.3-0.1-0.5-0.3-0.7-0.6c-0.2-0.3-0.2-0.6-0.2-0.9c0-0.4,0.1-0.7,0.3-0.9
		c0.2-0.3,0.4-0.4,0.7-0.6c0.3-0.1,0.7-0.2,1.2-0.2h1.4v0.7h-1.5c-0.4,0-0.7,0.1-0.9,0.3c-0.2,0.2-0.3,0.4-0.3,0.7s0.1,0.5,0.3,0.7
		c0.2,0.2,0.5,0.3,0.9,0.3c0.2,0,0.4,0,0.6-0.1c0.2-0.1,0.4-0.2,0.5-0.4s0.2-0.5,0.2-0.8l0.3,0.4c0,0.4-0.1,0.7-0.3,0.9
		c-0.1,0.3-0.4,0.4-0.6,0.6S198.7,15,198.4,15z M200.1,14.8v-1.6h-0.2v-1.8c0-0.4-0.1-0.6-0.3-0.8c-0.2-0.2-0.5-0.3-0.8-0.3
		c-0.2,0-0.4,0-0.6,0c-0.2,0-0.4,0-0.6,0s-0.4,0-0.5,0V9.5c0.1,0,0.3,0,0.5,0c0.2,0,0.3,0,0.5,0c0.2,0,0.3,0,0.5,0
		c0.5,0,1,0.1,1.3,0.2c0.3,0.1,0.6,0.3,0.8,0.6c0.2,0.3,0.2,0.7,0.2,1.2v3.3H200.1z"/>
</g>
<g class="st6">
	<path class="st0" d="M202.5,14.8V7.6h0.9v7.2H202.5z M206.1,14.8l-2-2.5h-0.9l2.4-2.8h1l-2.2,2.5l0.1-0.5l2.7,3.2H206.1z"/>
</g>
<g class="st6">
	<path class="st0" d="M207.5,10.3V9.5h1.8v0.8H207.5z M208.6,8.7c-0.2,0-0.4-0.1-0.5-0.2c-0.1-0.1-0.2-0.3-0.2-0.4
		c0-0.2,0.1-0.3,0.2-0.4c0.1-0.1,0.3-0.2,0.5-0.2s0.4,0.1,0.5,0.2c0.1,0.1,0.2,0.3,0.2,0.4c0,0.2-0.1,0.3-0.2,0.4
		C209,8.6,208.8,8.7,208.6,8.7z M208.4,14.8V9.5h0.9v5.3H208.4z"/>
	<path class="st0" d="M211.1,14.8V9.5h0.8v2.3h-0.1c0-0.5,0.1-1,0.2-1.3s0.4-0.6,0.6-0.8s0.7-0.3,1.1-0.3h0c0.7,0,1.2,0.2,1.5,0.6
		c0.3,0.4,0.5,1,0.5,1.8v3h-0.9v-3.2c0-0.4-0.1-0.7-0.3-1s-0.5-0.4-0.9-0.4c-0.4,0-0.8,0.1-1,0.4s-0.4,0.6-0.4,1v3.2H211.1z"/>
</g>
<g class="st6">
	<path class="st0" d="M219.2,16.9c-0.2,0-0.5,0-0.7,0c-0.2,0-0.5,0-0.7-0.1V16c0.2,0,0.5,0.1,0.7,0.1c0.3,0,0.5,0,0.7,0
		c0.5,0,0.9-0.1,1.2-0.2c0.3-0.1,0.5-0.3,0.6-0.6c0.1-0.3,0.2-0.6,0.2-1.1v-1l0.3-0.8c0,0.5-0.1,1-0.3,1.3s-0.5,0.6-0.8,0.8
		c-0.3,0.2-0.7,0.3-1.1,0.3c-0.4,0-0.7-0.1-1-0.2c-0.3-0.1-0.6-0.3-0.8-0.6s-0.4-0.5-0.5-0.9c-0.1-0.3-0.2-0.7-0.2-1V12
		c0-0.4,0.1-0.7,0.2-1c0.1-0.3,0.3-0.6,0.5-0.8s0.5-0.4,0.8-0.6c0.3-0.1,0.7-0.2,1-0.2c0.4,0,0.8,0.1,1.2,0.3
		c0.3,0.2,0.6,0.5,0.8,0.8c0.2,0.4,0.3,0.8,0.3,1.3l-0.3,0V9.5h0.8v4.7c0,0.6-0.1,1.1-0.3,1.5s-0.5,0.7-0.9,0.9
		S219.9,16.9,219.2,16.9z M219.5,14c0.3,0,0.6-0.1,0.9-0.2c0.3-0.1,0.5-0.3,0.6-0.6c0.2-0.3,0.2-0.6,0.2-0.9v-0.5
		c0-0.4-0.1-0.7-0.2-0.9c-0.2-0.2-0.4-0.4-0.6-0.6s-0.5-0.2-0.8-0.2c-0.3,0-0.6,0.1-0.9,0.2s-0.5,0.4-0.6,0.7
		c-0.1,0.3-0.2,0.6-0.2,1s0.1,0.7,0.2,1c0.1,0.3,0.4,0.5,0.6,0.7C218.8,13.9,219.1,14,219.5,14z"/>
</g>
<g class="st6">
</g>
<g class="st6">
	<path class="st0" d="M228.2,15c-0.5,0-0.8-0.1-1.2-0.2s-0.6-0.4-0.8-0.6c-0.2-0.3-0.4-0.6-0.5-0.9s-0.2-0.6-0.2-1v-0.2
		c0-0.3,0.1-0.7,0.2-1c0.1-0.3,0.3-0.6,0.5-0.9c0.2-0.3,0.5-0.5,0.8-0.6s0.7-0.2,1.2-0.2s0.8,0.1,1.2,0.2c0.4,0.2,0.6,0.4,0.8,0.7
		c0.2,0.3,0.3,0.7,0.4,1.1h-0.9c0-0.3-0.2-0.6-0.5-0.8c-0.3-0.2-0.6-0.3-1-0.3c-0.4,0-0.7,0.1-0.9,0.3c-0.2,0.2-0.4,0.4-0.6,0.7
		s-0.2,0.6-0.2,1c0,0.4,0.1,0.7,0.2,1s0.3,0.5,0.6,0.7s0.6,0.3,1,0.3c0.3,0,0.6-0.1,0.8-0.2c0.2-0.1,0.4-0.2,0.5-0.4
		c0.1-0.2,0.2-0.4,0.2-0.6h0.9c0,0.4-0.1,0.8-0.4,1.1c-0.2,0.3-0.5,0.5-0.9,0.7S228.6,15,228.2,15z"/>
</g>
<g class="st6">
	<path class="st0" d="M234.2,15c-0.5,0-0.9-0.1-1.2-0.2c-0.3-0.2-0.6-0.4-0.9-0.6c-0.2-0.3-0.4-0.6-0.5-0.9c-0.1-0.3-0.2-0.7-0.2-1
		v-0.2c0-0.3,0.1-0.7,0.2-1c0.1-0.3,0.3-0.6,0.6-0.9c0.2-0.3,0.5-0.5,0.9-0.6c0.3-0.2,0.7-0.2,1.2-0.2c0.4,0,0.8,0.1,1.2,0.2
		c0.3,0.2,0.6,0.4,0.9,0.6c0.2,0.3,0.4,0.6,0.6,0.9s0.2,0.7,0.2,1v0.2c0,0.3-0.1,0.7-0.2,1c-0.1,0.3-0.3,0.6-0.5,0.9
		c-0.2,0.3-0.5,0.5-0.9,0.6S234.6,15,234.2,15z M234.2,14.1c0.4,0,0.7-0.1,1-0.3c0.3-0.2,0.5-0.4,0.6-0.7c0.1-0.3,0.2-0.6,0.2-1
		c0-0.4-0.1-0.7-0.2-1s-0.4-0.5-0.6-0.7c-0.3-0.2-0.6-0.3-1-0.3c-0.4,0-0.7,0.1-1,0.3c-0.3,0.2-0.5,0.4-0.7,0.7
		c-0.2,0.3-0.2,0.6-0.2,1c0,0.4,0.1,0.7,0.2,1c0.1,0.3,0.4,0.5,0.6,0.7S233.8,14.1,234.2,14.1z"/>
</g>
<g class="st6">
	<path class="st0" d="M238.2,14.8V9.5h0.8v2.3h-0.1c0-0.5,0.1-1,0.2-1.3s0.3-0.6,0.6-0.8c0.3-0.2,0.6-0.3,1-0.3h0
		c0.4,0,0.8,0.1,1,0.3s0.5,0.5,0.6,0.8s0.2,0.8,0.2,1.3h-0.3c0-0.5,0.1-1,0.2-1.3c0.1-0.4,0.3-0.6,0.6-0.8s0.6-0.3,1-0.3h0
		c0.4,0,0.8,0.1,1,0.3c0.3,0.2,0.5,0.5,0.6,0.8s0.2,0.8,0.2,1.3v3h-0.9v-3.2c0-0.4-0.1-0.8-0.3-1c-0.2-0.2-0.5-0.4-0.9-0.4
		c-0.4,0-0.7,0.1-0.9,0.4s-0.4,0.6-0.4,1v3.2h-0.9v-3.2c0-0.4-0.1-0.8-0.3-1c-0.2-0.2-0.5-0.4-0.9-0.4c-0.4,0-0.7,0.1-0.9,0.4
		s-0.4,0.6-0.4,1v3.2H238.2z"/>
	<path class="st0" d="M247.8,14.8V9.5h0.8v2.3h-0.1c0-0.5,0.1-1,0.2-1.3s0.3-0.6,0.6-0.8c0.3-0.2,0.6-0.3,1-0.3h0
		c0.4,0,0.8,0.1,1,0.3s0.5,0.5,0.6,0.8s0.2,0.8,0.2,1.3h-0.3c0-0.5,0.1-1,0.2-1.3c0.1-0.4,0.3-0.6,0.6-0.8s0.6-0.3,1-0.3h0
		c0.4,0,0.8,0.1,1,0.3c0.3,0.2,0.5,0.5,0.6,0.8s0.2,0.8,0.2,1.3v3h-0.9v-3.2c0-0.4-0.1-0.8-0.3-1c-0.2-0.2-0.5-0.4-0.9-0.4
		c-0.4,0-0.7,0.1-0.9,0.4s-0.4,0.6-0.4,1v3.2h-0.9v-3.2c0-0.4-0.1-0.8-0.3-1c-0.2-0.2-0.5-0.4-0.9-0.4c-0.4,0-0.7,0.1-0.9,0.4
		s-0.4,0.6-0.4,1v3.2H247.8z"/>
	<path class="st0" d="M259.2,15c-0.6,0-1.1-0.2-1.4-0.6c-0.3-0.4-0.5-1-0.5-1.8V9.5h0.9v3.3c0,0.4,0.1,0.7,0.3,1
		c0.2,0.2,0.5,0.4,0.9,0.4c0.4,0,0.7-0.1,1-0.4c0.2-0.3,0.4-0.6,0.4-1V9.5h0.9v5.3H261v-2.3h0.1c0,0.5-0.1,1-0.2,1.3
		c-0.1,0.4-0.3,0.6-0.6,0.8C260,14.9,259.7,15,259.2,15L259.2,15z"/>
</g>
<g class="st6">
	<path class="st0" d="M263,14.8V9.5h0.8v2.3h-0.1c0-0.5,0.1-1,0.2-1.3s0.4-0.6,0.6-0.8s0.7-0.3,1.1-0.3h0c0.7,0,1.2,0.2,1.5,0.6
		c0.3,0.4,0.5,1,0.5,1.8v3h-0.9v-3.2c0-0.4-0.1-0.7-0.3-1s-0.5-0.4-0.9-0.4c-0.4,0-0.8,0.1-1,0.4s-0.4,0.6-0.4,1v3.2H263z"/>
</g>
<g class="st6">
	<path class="st0" d="M268.6,10.3V9.5h1.8v0.8H268.6z M269.7,8.7c-0.2,0-0.4-0.1-0.5-0.2c-0.1-0.1-0.2-0.3-0.2-0.4
		c0-0.2,0.1-0.3,0.2-0.4c0.1-0.1,0.3-0.2,0.5-0.2s0.4,0.1,0.5,0.2c0.1,0.1,0.2,0.3,0.2,0.4c0,0.2-0.1,0.3-0.2,0.4
		C270,8.6,269.9,8.7,269.7,8.7z M269.4,14.8V9.5h0.9v5.3H269.4z"/>
	<path class="st0" d="M274.4,15c-0.5,0-0.8-0.1-1.2-0.2c-0.3-0.2-0.6-0.4-0.8-0.6c-0.2-0.3-0.4-0.6-0.5-0.9c-0.1-0.3-0.2-0.6-0.2-1
		v-0.2c0-0.3,0.1-0.7,0.2-1c0.1-0.3,0.3-0.6,0.5-0.9c0.2-0.3,0.5-0.5,0.8-0.6c0.3-0.2,0.7-0.2,1.2-0.2s0.8,0.1,1.2,0.2
		c0.4,0.2,0.6,0.4,0.8,0.7s0.3,0.7,0.4,1.1h-0.9c0-0.3-0.2-0.6-0.5-0.8s-0.6-0.3-1-0.3c-0.4,0-0.7,0.1-0.9,0.3
		c-0.3,0.2-0.4,0.4-0.6,0.7s-0.2,0.6-0.2,1c0,0.4,0.1,0.7,0.2,1s0.3,0.5,0.6,0.7s0.6,0.3,1,0.3c0.3,0,0.6-0.1,0.8-0.2
		c0.2-0.1,0.4-0.2,0.5-0.4s0.2-0.4,0.2-0.6h0.9c0,0.4-0.1,0.8-0.4,1.1c-0.2,0.3-0.5,0.5-0.9,0.7S274.9,15,274.4,15z"/>
	<path class="st0" d="M279.6,15c-0.4,0-0.7-0.1-1-0.2c-0.3-0.1-0.5-0.3-0.7-0.6c-0.2-0.3-0.2-0.6-0.2-0.9c0-0.4,0.1-0.7,0.3-0.9
		c0.2-0.3,0.4-0.4,0.7-0.6c0.3-0.1,0.7-0.2,1.2-0.2h1.4v0.7h-1.5c-0.4,0-0.7,0.1-0.9,0.3c-0.2,0.2-0.3,0.4-0.3,0.7s0.1,0.5,0.3,0.7
		c0.2,0.2,0.5,0.3,0.9,0.3c0.2,0,0.4,0,0.6-0.1c0.2-0.1,0.4-0.2,0.5-0.4s0.2-0.5,0.2-0.8l0.3,0.4c0,0.4-0.1,0.7-0.3,0.9
		c-0.1,0.3-0.4,0.4-0.6,0.6C280.3,14.9,280,15,279.6,15z M281.4,14.8v-1.6h-0.2v-1.8c0-0.4-0.1-0.6-0.3-0.8
		c-0.2-0.2-0.5-0.3-0.8-0.3c-0.2,0-0.4,0-0.6,0c-0.2,0-0.4,0-0.6,0c-0.2,0-0.4,0-0.5,0V9.5c0.1,0,0.3,0,0.5,0c0.2,0,0.3,0,0.5,0
		c0.2,0,0.3,0,0.5,0c0.5,0,1,0.1,1.3,0.2c0.3,0.1,0.6,0.3,0.8,0.6c0.2,0.3,0.2,0.7,0.2,1.2v3.3H281.4z"/>
</g>
<g class="st6">
	<path class="st0" d="M282.5,10.2V9.5h3.6v0.7H282.5z M285.3,14.9c-0.4,0-0.7-0.1-1-0.2c-0.3-0.1-0.5-0.3-0.7-0.6
		c-0.2-0.3-0.2-0.6-0.2-1.1V7.9h0.9v5.2c0,0.3,0.1,0.5,0.2,0.7c0.2,0.2,0.4,0.2,0.7,0.2h0.9v0.9H285.3z"/>
	<path class="st0" d="M286.9,10.3V9.5h1.8v0.8H286.9z M288,8.7c-0.2,0-0.4-0.1-0.5-0.2c-0.1-0.1-0.2-0.3-0.2-0.4
		c0-0.2,0.1-0.3,0.2-0.4c0.1-0.1,0.3-0.2,0.5-0.2s0.4,0.1,0.5,0.2c0.1,0.1,0.2,0.3,0.2,0.4c0,0.2-0.1,0.3-0.2,0.4
		C288.3,8.6,288.2,8.7,288,8.7z M287.7,14.8V9.5h0.9v5.3H287.7z"/>
</g>
<g class="st6">
	<path class="st0" d="M292.6,15c-0.5,0-0.9-0.1-1.2-0.2c-0.3-0.2-0.6-0.4-0.9-0.6c-0.2-0.3-0.4-0.6-0.5-0.9c-0.1-0.3-0.2-0.7-0.2-1
		v-0.2c0-0.3,0.1-0.7,0.2-1s0.3-0.6,0.6-0.9c0.2-0.3,0.5-0.5,0.9-0.6c0.3-0.2,0.7-0.2,1.2-0.2s0.8,0.1,1.2,0.2
		c0.3,0.2,0.6,0.4,0.9,0.6c0.2,0.3,0.4,0.6,0.6,0.9s0.2,0.7,0.2,1v0.2c0,0.3-0.1,0.7-0.2,1c-0.1,0.3-0.3,0.6-0.5,0.9
		c-0.2,0.3-0.5,0.5-0.9,0.6C293.4,14.9,293,15,292.6,15z M292.6,14.1c0.4,0,0.7-0.1,1-0.3s0.5-0.4,0.6-0.7c0.1-0.3,0.2-0.6,0.2-1
		c0-0.4-0.1-0.7-0.2-1s-0.4-0.5-0.6-0.7c-0.3-0.2-0.6-0.3-1-0.3c-0.4,0-0.7,0.1-1,0.3c-0.3,0.2-0.5,0.4-0.7,0.7s-0.2,0.6-0.2,1
		c0,0.4,0.1,0.7,0.2,1c0.1,0.3,0.4,0.5,0.6,0.7C291.8,14.1,292.2,14.1,292.6,14.1z"/>
</g>
<g class="st6">
	<path class="st0" d="M296.6,14.8V9.5h0.8v2.3h-0.1c0-0.5,0.1-1,0.2-1.3s0.4-0.6,0.6-0.8c0.3-0.2,0.7-0.3,1.1-0.3h0
		c0.7,0,1.2,0.2,1.5,0.6s0.5,1,0.5,1.8v3h-0.9v-3.2c0-0.4-0.1-0.7-0.3-1s-0.5-0.4-0.9-0.4c-0.4,0-0.8,0.1-1,0.4s-0.4,0.6-0.4,1v3.2
		H296.6z"/>
</g>
<g class="st6">
	<path class="st0" d="M304.5,15c-0.7,0-1.2-0.1-1.6-0.4c-0.4-0.3-0.6-0.7-0.6-1.2h0.9c0,0.2,0.1,0.4,0.3,0.6c0.2,0.2,0.5,0.3,1,0.3
		c0.4,0,0.7-0.1,1-0.3c0.2-0.2,0.3-0.4,0.3-0.6c0-0.2-0.1-0.4-0.2-0.5c-0.2-0.1-0.4-0.2-0.8-0.2l-0.6-0.1c-0.5-0.1-0.9-0.2-1.2-0.5
		c-0.3-0.2-0.5-0.6-0.5-1c0-0.3,0.1-0.6,0.3-0.9c0.2-0.2,0.4-0.4,0.7-0.6c0.3-0.1,0.7-0.2,1-0.2c0.6,0,1.1,0.1,1.4,0.4
		c0.4,0.3,0.6,0.7,0.6,1.2h-0.9c0-0.2-0.1-0.4-0.3-0.5s-0.5-0.2-0.8-0.2s-0.6,0.1-0.8,0.2s-0.3,0.3-0.3,0.6c0,0.2,0.1,0.4,0.2,0.5
		c0.1,0.1,0.4,0.2,0.7,0.2l0.6,0.1c0.6,0.1,1,0.2,1.4,0.5s0.5,0.6,0.5,1.1c0,0.3-0.1,0.6-0.3,0.9c-0.2,0.3-0.4,0.5-0.8,0.6
		C305.3,14.9,304.9,15,304.5,15z"/>
</g>
<g class="st6">
</g>
<g class="st6">
	<path class="st0" d="M188.7,26.3l-1.5-5.3h0.9l1.5,5.3H188.7z M189,26.3v-0.8h1.1v0.8H189z M189.4,26.3l1.1-5.1h1.3l1.2,5.1h-0.8
		l-1.2-5.1h0.3l-1.1,5.1H189.4z M192.4,26.3v-0.8h1.1v0.8H192.4z M192.9,26.3l1.3-5.3h0.9l-1.3,5.3H192.9z"/>
</g>
<g class="st6">
	<path class="st0" d="M198.5,26.5c-0.5,0-0.9-0.1-1.2-0.2c-0.3-0.2-0.6-0.4-0.9-0.6c-0.2-0.3-0.4-0.6-0.5-0.9
		c-0.1-0.3-0.2-0.7-0.2-1v-0.2c0-0.3,0.1-0.7,0.2-1s0.3-0.6,0.6-0.9c0.2-0.3,0.5-0.5,0.9-0.6c0.3-0.2,0.7-0.2,1.2-0.2
		s0.8,0.1,1.2,0.2c0.3,0.2,0.6,0.4,0.9,0.6c0.2,0.3,0.4,0.6,0.6,0.9s0.2,0.7,0.2,1v0.2c0,0.3-0.1,0.7-0.2,1
		c-0.1,0.3-0.3,0.6-0.5,0.9c-0.2,0.3-0.5,0.5-0.9,0.6C199.4,26.4,199,26.5,198.5,26.5z M198.5,25.7c0.4,0,0.7-0.1,1-0.3
		s0.5-0.4,0.6-0.7c0.1-0.3,0.2-0.6,0.2-1c0-0.4-0.1-0.7-0.2-1s-0.4-0.5-0.6-0.7c-0.3-0.2-0.6-0.3-1-0.3c-0.4,0-0.7,0.1-1,0.3
		c-0.3,0.2-0.5,0.4-0.7,0.7s-0.2,0.6-0.2,1c0,0.4,0.1,0.7,0.2,1c0.1,0.3,0.4,0.5,0.6,0.7C197.8,25.6,198.1,25.7,198.5,25.7z"/>
	<path class="st0" d="M202.8,26.3v-5.3h0.8v2.2h0c0-0.8,0.2-1.3,0.5-1.7c0.3-0.4,0.8-0.5,1.5-0.5h0.2v0.8h-0.3
		c-0.5,0-0.9,0.1-1.2,0.4s-0.4,0.7-0.4,1.2v2.9H202.8z"/>
	<path class="st0" d="M206.8,26.3v-7.2h0.9v7.2H206.8z M210.5,26.3l-2-2.5h-0.9l2.4-2.8h1l-2.2,2.5l0.1-0.5l2.7,3.2H210.5z"/>
</g>
<g class="st6">
	<path class="st0" d="M213.8,21.8v-0.7h3.3v0.7H213.8z M214.5,26.3v-5.5c0-0.6,0.2-1,0.5-1.3c0.3-0.3,0.8-0.4,1.4-0.4h0.7v0.8h-0.8
		c-0.2,0-0.4,0.1-0.6,0.2c-0.1,0.1-0.2,0.3-0.2,0.6v5.7H214.5z"/>
</g>
<g class="st6">
	<path class="st0" d="M220.4,26.5c-0.5,0-0.9-0.1-1.2-0.2c-0.3-0.2-0.6-0.4-0.9-0.6c-0.2-0.3-0.4-0.6-0.5-0.9
		c-0.1-0.3-0.2-0.7-0.2-1v-0.2c0-0.3,0.1-0.7,0.2-1c0.1-0.3,0.3-0.6,0.6-0.9c0.2-0.3,0.5-0.5,0.9-0.6c0.3-0.2,0.7-0.2,1.2-0.2
		c0.4,0,0.8,0.1,1.2,0.2c0.3,0.2,0.6,0.4,0.9,0.6c0.2,0.3,0.4,0.6,0.6,0.9s0.2,0.7,0.2,1v0.2c0,0.3-0.1,0.7-0.2,1
		c-0.1,0.3-0.3,0.6-0.5,0.9c-0.2,0.3-0.5,0.5-0.9,0.6S220.9,26.5,220.4,26.5z M220.4,25.7c0.4,0,0.7-0.1,1-0.3
		c0.3-0.2,0.5-0.4,0.6-0.7c0.1-0.3,0.2-0.6,0.2-1c0-0.4-0.1-0.7-0.2-1s-0.4-0.5-0.6-0.7c-0.3-0.2-0.6-0.3-1-0.3
		c-0.4,0-0.7,0.1-1,0.3c-0.3,0.2-0.5,0.4-0.7,0.7c-0.2,0.3-0.2,0.6-0.2,1c0,0.4,0.1,0.7,0.2,1c0.1,0.3,0.4,0.5,0.6,0.7
		S220,25.7,220.4,25.7z"/>
	<path class="st0" d="M224.7,26.3v-5.3h0.8v2.2h0c0-0.8,0.2-1.3,0.5-1.7c0.3-0.4,0.8-0.5,1.5-0.5h0.2v0.8h-0.3
		c-0.5,0-0.9,0.1-1.2,0.4s-0.4,0.7-0.4,1.2v2.9H224.7z"/>
</g>
<g class="st6">
	<path class="st0" d="M232.9,26.5c-0.5,0-0.9-0.1-1.2-0.2s-0.6-0.4-0.8-0.6c-0.2-0.3-0.4-0.6-0.5-0.9c-0.1-0.3-0.2-0.7-0.2-1v-0.2
		c0-0.3,0.1-0.7,0.2-1c0.1-0.3,0.3-0.6,0.5-0.9c0.2-0.3,0.5-0.5,0.8-0.6c0.3-0.2,0.7-0.2,1.2-0.2c0.6,0,1,0.1,1.4,0.4
		c0.4,0.2,0.6,0.6,0.8,1c0.2,0.4,0.3,0.8,0.3,1.2v0.4h-4.7v-0.7h4l-0.2,0.4c0-0.4-0.1-0.7-0.2-1c-0.1-0.3-0.3-0.5-0.5-0.6
		s-0.5-0.2-0.9-0.2c-0.4,0-0.7,0.1-0.9,0.3c-0.2,0.2-0.4,0.4-0.6,0.7c-0.1,0.3-0.2,0.6-0.2,1c0,0.4,0.1,0.7,0.2,1
		c0.1,0.3,0.3,0.5,0.6,0.7c0.3,0.2,0.6,0.3,1,0.3c0.4,0,0.8-0.1,1-0.3c0.3-0.2,0.4-0.4,0.5-0.6h0.9c-0.1,0.4-0.2,0.7-0.4,0.9
		c-0.2,0.3-0.5,0.5-0.8,0.6C233.7,26.5,233.4,26.5,232.9,26.5z"/>
</g>
<g class="st6">
	<path class="st0" d="M237.7,26.3l-1.8-5.3h1l1.8,5.3H237.7z M238,26.3v-0.8h1.1v0.8H238z M238.4,26.3l1.5-5.3h0.9l-1.6,5.3H238.4z"
		/>
</g>
<g class="st6">
	<path class="st0" d="M244.2,26.5c-0.5,0-0.9-0.1-1.2-0.2s-0.6-0.4-0.8-0.6c-0.2-0.3-0.4-0.6-0.5-0.9c-0.1-0.3-0.2-0.7-0.2-1v-0.2
		c0-0.3,0.1-0.7,0.2-1c0.1-0.3,0.3-0.6,0.5-0.9c0.2-0.3,0.5-0.5,0.8-0.6c0.3-0.2,0.7-0.2,1.2-0.2c0.6,0,1,0.1,1.4,0.4
		c0.4,0.2,0.6,0.6,0.8,1c0.2,0.4,0.3,0.8,0.3,1.2v0.4H242v-0.7h4l-0.2,0.4c0-0.4-0.1-0.7-0.2-1c-0.1-0.3-0.3-0.5-0.5-0.6
		s-0.5-0.2-0.9-0.2c-0.4,0-0.7,0.1-0.9,0.3c-0.2,0.2-0.4,0.4-0.6,0.7c-0.1,0.3-0.2,0.6-0.2,1c0,0.4,0.1,0.7,0.2,1
		c0.1,0.3,0.3,0.5,0.6,0.7c0.3,0.2,0.6,0.3,1,0.3c0.4,0,0.8-0.1,1-0.3c0.3-0.2,0.4-0.4,0.5-0.6h0.9c-0.1,0.4-0.2,0.7-0.4,0.9
		c-0.2,0.3-0.5,0.5-0.8,0.6C245,26.5,244.7,26.5,244.2,26.5z"/>
</g>
<g class="st6">
	<path class="st0" d="M247.9,26.3v-5.3h0.8v2.2h0c0-0.8,0.2-1.3,0.5-1.7c0.3-0.4,0.8-0.5,1.5-0.5h0.2v0.8h-0.3
		c-0.5,0-0.9,0.1-1.2,0.4s-0.4,0.7-0.4,1.2v2.9H247.9z"/>
</g>
<g class="st6">
	<path class="st0" d="M253.2,26.2l-1.9-5.2h1l1.8,5.2H253.2z M251.6,28.4v-0.8h0.8c0.2,0,0.4,0,0.6-0.1c0.2-0.1,0.3-0.2,0.4-0.3
		c0.1-0.1,0.2-0.3,0.3-0.5l1.7-5.6h0.9l-1.8,5.8c-0.1,0.3-0.3,0.6-0.4,0.9c-0.2,0.2-0.4,0.4-0.7,0.5c-0.3,0.1-0.6,0.2-1,0.2H251.6z
		 M253.3,26.2v-0.8h1.1v0.8H253.3z"/>
</g>
<g class="st6">
	<path class="st0" d="M259.7,26.5c-0.5,0-0.9-0.1-1.2-0.2c-0.3-0.2-0.6-0.4-0.9-0.6c-0.2-0.3-0.4-0.6-0.5-0.9
		c-0.1-0.3-0.2-0.7-0.2-1v-0.2c0-0.3,0.1-0.7,0.2-1s0.3-0.6,0.6-0.9c0.2-0.3,0.5-0.5,0.9-0.6c0.3-0.2,0.7-0.2,1.2-0.2
		s0.8,0.1,1.2,0.2c0.3,0.2,0.6,0.4,0.9,0.6c0.2,0.3,0.4,0.6,0.6,0.9s0.2,0.7,0.2,1v0.2c0,0.3-0.1,0.7-0.2,1
		c-0.1,0.3-0.3,0.6-0.5,0.9c-0.2,0.3-0.5,0.5-0.9,0.6C260.6,26.4,260.2,26.5,259.7,26.5z M259.7,25.7c0.4,0,0.7-0.1,1-0.3
		s0.5-0.4,0.6-0.7c0.1-0.3,0.2-0.6,0.2-1c0-0.4-0.1-0.7-0.2-1s-0.4-0.5-0.6-0.7c-0.3-0.2-0.6-0.3-1-0.3c-0.4,0-0.7,0.1-1,0.3
		c-0.3,0.2-0.5,0.4-0.7,0.7s-0.2,0.6-0.2,1c0,0.4,0.1,0.7,0.2,1c0.1,0.3,0.4,0.5,0.6,0.7C259,25.6,259.3,25.7,259.7,25.7z"/>
</g>
<g class="st6">
	<path class="st0" d="M263.8,26.3v-5.3h0.8v2.3h-0.1c0-0.5,0.1-1,0.2-1.3s0.4-0.6,0.6-0.8c0.3-0.2,0.7-0.3,1.1-0.3h0
		c0.7,0,1.2,0.2,1.5,0.6s0.5,1,0.5,1.8v3h-0.9v-3.2c0-0.4-0.1-0.7-0.3-1s-0.5-0.4-0.9-0.4c-0.4,0-0.8,0.1-1,0.4s-0.4,0.6-0.4,1v3.2
		H263.8z"/>
</g>
<g class="st6">
	<path class="st0" d="M272.3,26.5c-0.5,0-0.9-0.1-1.2-0.2s-0.6-0.4-0.8-0.6c-0.2-0.3-0.4-0.6-0.5-0.9c-0.1-0.3-0.2-0.7-0.2-1v-0.2
		c0-0.3,0.1-0.7,0.2-1c0.1-0.3,0.3-0.6,0.5-0.9c0.2-0.3,0.5-0.5,0.8-0.6c0.3-0.2,0.7-0.2,1.2-0.2c0.6,0,1,0.1,1.4,0.4s0.6,0.6,0.8,1
		s0.3,0.8,0.3,1.2v0.4h-4.7v-0.7h4l-0.2,0.4c0-0.4-0.1-0.7-0.2-1c-0.1-0.3-0.3-0.5-0.5-0.6s-0.5-0.2-0.9-0.2c-0.4,0-0.7,0.1-0.9,0.3
		c-0.2,0.2-0.4,0.4-0.6,0.7c-0.1,0.3-0.2,0.6-0.2,1c0,0.4,0.1,0.7,0.2,1c0.1,0.3,0.3,0.5,0.6,0.7s0.6,0.3,1,0.3c0.4,0,0.8-0.1,1-0.3
		c0.3-0.2,0.4-0.4,0.5-0.6h0.9c-0.1,0.4-0.2,0.7-0.4,0.9c-0.2,0.3-0.5,0.5-0.8,0.6C273.1,26.5,272.8,26.5,272.3,26.5z"/>
</g>
<g>
	<rect x="0.7" y="29.4" class="st0" width="24.6" height="4.2"/>
	<path class="st1" d="M18.6,24c14.1,0,18.2-4.6,18.2-10.6S32.6,2.8,18.6,2.8C4.5,2.8,0.4,7.4,0.4,13.4C0.4,19.3,4.5,24,18.6,24
		 M8.8,13.4c0-4.4,2-8.1,9.8-8.1c7.7,0,9.8,3.7,9.8,8.1s-2.1,8.1-9.8,8.1C10.8,21.5,8.8,17.7,8.8,13.4"/>
	<rect x="76.5" y="29.4" class="st7" width="11.4" height="4.2"/>
</g>
</svg>
